<svg width="134" height="314" viewBox="0 0 134 314" fill="none" xmlns="http://www.w3.org/2000/svg">
<rect x="134.002" y="0.622559" width="5.61352" height="5.61352" transform="rotate(90 134.002 0.622559)" fill="currentColor"/>
<rect x="134.002" y="168.16" width="5.61352" height="5.61352" transform="rotate(90 134.002 168.16)" fill="currentColor"/>
<rect x="134.002" y="84.3911" width="5.61352" height="5.61352" transform="rotate(90 134.002 84.3911)" fill="currentColor"/>
<rect x="134.002" y="251.928" width="5.61352" height="5.61352" transform="rotate(90 134.002 251.928)" fill="currentColor"/>
<rect x="134.002" y="56.4683" width="5.61352" height="5.61352" transform="rotate(90 134.002 56.4683)" fill="currentColor"/>
<rect x="134.002" y="224.006" width="5.61352" height="5.61352" transform="rotate(90 134.002 224.006)" fill="currentColor"/>
<rect x="134.002" y="140.237" width="5.61352" height="5.61352" transform="rotate(90 134.002 140.237)" fill="currentColor"/>
<rect x="134.002" y="307.774" width="5.61352" height="5.61352" transform="rotate(90 134.002 307.774)" fill="currentColor"/>
<rect x="134.002" y="28.5454" width="5.61352" height="5.61352" transform="rotate(90 134.002 28.5454)" fill="currentColor"/>
<rect x="134.002" y="196.083" width="5.61352" height="5.61352" transform="rotate(90 134.002 196.083)" fill="currentColor"/>
<rect x="134.002" y="112.314" width="5.61352" height="5.61352" transform="rotate(90 134.002 112.314)" fill="currentColor"/>
<rect x="134.002" y="279.851" width="5.61352" height="5.61352" transform="rotate(90 134.002 279.851)" fill="currentColor"/>
<rect x="91.2051" y="0.622559" width="5.61352" height="5.61352" transform="rotate(90 91.2051 0.622559)" fill="currentColor"/>
<rect x="91.2051" y="168.16" width="5.61352" height="5.61352" transform="rotate(90 91.2051 168.16)" fill="currentColor"/>
<rect x="91.2051" y="84.3911" width="5.61352" height="5.61352" transform="rotate(90 91.2051 84.3911)" fill="currentColor"/>
<rect x="91.2051" y="251.928" width="5.61352" height="5.61352" transform="rotate(90 91.2051 251.928)" fill="currentColor"/>
<rect x="91.2051" y="56.4683" width="5.61352" height="5.61352" transform="rotate(90 91.2051 56.4683)" fill="currentColor"/>
<rect x="91.2051" y="224.006" width="5.61352" height="5.61352" transform="rotate(90 91.2051 224.006)" fill="currentColor"/>
<rect x="91.2051" y="140.237" width="5.61352" height="5.61352" transform="rotate(90 91.2051 140.237)" fill="currentColor"/>
<rect x="91.2051" y="307.774" width="5.61352" height="5.61352" transform="rotate(90 91.2051 307.774)" fill="currentColor"/>
<rect x="91.2051" y="28.5454" width="5.61352" height="5.61352" transform="rotate(90 91.2051 28.5454)" fill="currentColor"/>
<rect x="91.2051" y="196.083" width="5.61352" height="5.61352" transform="rotate(90 91.2051 196.083)" fill="currentColor"/>
<rect x="91.2051" y="112.314" width="5.61352" height="5.61352" transform="rotate(90 91.2051 112.314)" fill="currentColor"/>
<rect x="91.2051" y="279.851" width="5.61352" height="5.61352" transform="rotate(90 91.2051 279.851)" fill="currentColor"/>
<rect x="48.4102" y="0.622559" width="5.61352" height="5.61352" transform="rotate(90 48.4102 0.622559)" fill="currentColor"/>
<rect x="48.4102" y="168.16" width="5.61352" height="5.61352" transform="rotate(90 48.4102 168.16)" fill="currentColor"/>
<rect x="48.4102" y="84.3911" width="5.61352" height="5.61352" transform="rotate(90 48.4102 84.3911)" fill="currentColor"/>
<rect x="48.4102" y="251.928" width="5.61352" height="5.61352" transform="rotate(90 48.4102 251.928)" fill="currentColor"/>
<rect x="48.4102" y="56.4683" width="5.61352" height="5.61352" transform="rotate(90 48.4102 56.4683)" fill="currentColor"/>
<rect x="48.4102" y="224.006" width="5.61352" height="5.61352" transform="rotate(90 48.4102 224.006)" fill="currentColor"/>
<rect x="48.4102" y="140.237" width="5.61352" height="5.61352" transform="rotate(90 48.4102 140.237)" fill="currentColor"/>
<rect x="48.4102" y="307.774" width="5.61352" height="5.61352" transform="rotate(90 48.4102 307.774)" fill="currentColor"/>
<rect x="48.4102" y="28.5454" width="5.61352" height="5.61352" transform="rotate(90 48.4102 28.5454)" fill="currentColor"/>
<rect x="48.4102" y="196.083" width="5.61352" height="5.61352" transform="rotate(90 48.4102 196.083)" fill="currentColor"/>
<rect x="48.4102" y="112.314" width="5.61352" height="5.61352" transform="rotate(90 48.4102 112.314)" fill="currentColor"/>
<rect x="48.4102" y="279.851" width="5.61352" height="5.61352" transform="rotate(90 48.4102 279.851)" fill="currentColor"/>
<rect x="5.61328" y="0.622559" width="5.61352" height="5.61352" transform="rotate(90 5.61328 0.622559)" fill="currentColor"/>
<rect x="5.61328" y="168.16" width="5.61352" height="5.61352" transform="rotate(90 5.61328 168.16)" fill="currentColor"/>
<rect x="5.61328" y="84.3911" width="5.61352" height="5.61352" transform="rotate(90 5.61328 84.3911)" fill="currentColor"/>
<rect x="5.61328" y="251.928" width="5.61352" height="5.61352" transform="rotate(90 5.61328 251.928)" fill="currentColor"/>
<rect x="5.61328" y="56.4683" width="5.61352" height="5.61352" transform="rotate(90 5.61328 56.4683)" fill="currentColor"/>
<rect x="5.61328" y="224.006" width="5.61352" height="5.61352" transform="rotate(90 5.61328 224.006)" fill="currentColor"/>
<rect x="5.61328" y="140.237" width="5.61352" height="5.61352" transform="rotate(90 5.61328 140.237)" fill="currentColor"/>
<rect x="5.61328" y="307.774" width="5.61352" height="5.61352" transform="rotate(90 5.61328 307.774)" fill="currentColor"/>
<rect x="5.61328" y="28.5454" width="5.61352" height="5.61352" transform="rotate(90 5.61328 28.5454)" fill="currentColor"/>
<rect x="5.61328" y="196.083" width="5.61352" height="5.61352" transform="rotate(90 5.61328 196.083)" fill="currentColor"/>
<rect x="5.61328" y="112.314" width="5.61352" height="5.61352" transform="rotate(90 5.61328 112.314)" fill="currentColor"/>
<rect x="5.61328" y="279.851" width="5.61352" height="5.61352" transform="rotate(90 5.61328 279.851)" fill="currentColor"/>
</svg>
