<svg width="783" height="113" viewBox="0 0 783 113" xmlns="http://www.w3.org/2000/svg">
<mask id="mask0_552_1718" style="mask-type:alpha" maskUnits="userSpaceOnUse" x="0" y="0" width="927" height="113">
<rect width="927" height="112.892" fill="#D9D9D9"/>
</mask>
<g mask="url(#mask0_552_1718)">
<g opacity="0.44">
<rect x="12.8496" y="13.7673" width="5.15221" height="5.15221" fill="currentColor"/>
<rect x="166.619" y="13.7673" width="5.15221" height="5.15221" fill="currentColor"/>
<rect x="89.7344" y="13.7673" width="5.15221" height="5.15221" fill="currentColor"/>
<rect x="243.503" y="13.7673" width="5.15221" height="5.15221" fill="currentColor"/>
<rect x="64.1055" y="13.7673" width="5.15221" height="5.15221" fill="currentColor"/>
<rect x="217.875" y="13.7673" width="5.15221" height="5.15221" fill="currentColor"/>
<rect x="140.99" y="13.7673" width="5.15221" height="5.15221" fill="currentColor"/>
<rect x="294.76" y="13.7673" width="5.15221" height="5.15221" fill="currentColor"/>
<rect x="38.4775" y="13.7673" width="5.15221" height="5.15221" fill="currentColor"/>
<rect x="192.247" y="13.7673" width="5.15221" height="5.15221" fill="currentColor"/>
<rect x="115.362" y="13.7673" width="5.15221" height="5.15221" fill="currentColor"/>
<rect x="269.132" y="13.7673" width="5.15221" height="5.15221" fill="currentColor"/>
<rect x="12.8496" y="53.0461" width="5.15221" height="5.15221" fill="currentColor"/>
<rect x="166.619" y="53.0461" width="5.15221" height="5.15221" fill="currentColor"/>
<rect x="89.7344" y="53.0461" width="5.15221" height="5.15221" fill="currentColor"/>
<rect x="243.503" y="53.0461" width="5.15221" height="5.15221" fill="currentColor"/>
<rect x="64.1055" y="53.0461" width="5.15221" height="5.15221" fill="currentColor"/>
<rect x="217.875" y="53.0461" width="5.15221" height="5.15221" fill="currentColor"/>
<rect x="140.99" y="53.0461" width="5.15221" height="5.15221" fill="currentColor"/>
<rect x="294.76" y="53.0461" width="5.15221" height="5.15221" fill="currentColor"/>
<rect x="38.4775" y="53.0461" width="5.15221" height="5.15221" fill="currentColor"/>
<rect x="192.247" y="53.0461" width="5.15221" height="5.15221" fill="currentColor"/>
<rect x="115.362" y="53.0461" width="5.15221" height="5.15221" fill="currentColor"/>
<rect x="269.132" y="53.0461" width="5.15221" height="5.15221" fill="currentColor"/>
<rect x="12.8496" y="92.3254" width="5.15221" height="5.15221" fill="currentColor"/>
<rect x="166.619" y="92.3254" width="5.15221" height="5.15221" fill="currentColor"/>
<rect x="89.7344" y="92.3254" width="5.15221" height="5.15221" fill="currentColor"/>
<rect x="243.503" y="92.3254" width="5.15221" height="5.15221" fill="currentColor"/>
<rect x="64.1055" y="92.3254" width="5.15221" height="5.15221" fill="currentColor"/>
<rect x="217.875" y="92.3254" width="5.15221" height="5.15221" fill="currentColor"/>
<rect x="140.99" y="92.3254" width="5.15221" height="5.15221" fill="currentColor"/>
<rect x="294.76" y="92.3252" width="5.15221" height="5.15221" fill="currentColor"/>
<rect x="38.4775" y="92.3254" width="5.15221" height="5.15221" fill="currentColor"/>
<rect x="192.247" y="92.3254" width="5.15221" height="5.15221" fill="currentColor"/>
<rect x="115.362" y="92.3254" width="5.15221" height="5.15221" fill="currentColor"/>
<rect x="269.132" y="92.3252" width="5.15221" height="5.15221" fill="currentColor"/>
</g>
<g opacity="0.44">
<rect x="320.32" y="13.7673" width="5.15221" height="5.15221" fill="currentColor"/>
<rect x="474.09" y="13.7673" width="5.15221" height="5.15221" fill="currentColor"/>
<rect x="397.205" y="13.7673" width="5.15221" height="5.15221" fill="currentColor"/>
<rect x="550.974" y="13.7673" width="5.15221" height="5.15221" fill="currentColor"/>
<rect x="371.577" y="13.7673" width="5.15221" height="5.15221" fill="currentColor"/>
<rect x="525.346" y="13.7673" width="5.15221" height="5.15221" fill="currentColor"/>
<rect x="448.461" y="13.7673" width="5.15221" height="5.15221" fill="currentColor"/>
<rect x="602.23" y="13.7673" width="5.15221" height="5.15221" fill="currentColor"/>
<rect x="345.948" y="13.7673" width="5.15221" height="5.15221" fill="currentColor"/>
<rect x="499.718" y="13.7673" width="5.15221" height="5.15221" fill="currentColor"/>
<rect x="422.833" y="13.7673" width="5.15221" height="5.15221" fill="currentColor"/>
<rect x="576.603" y="13.7673" width="5.15221" height="5.15221" fill="currentColor"/>
<rect x="320.32" y="53.0461" width="5.15221" height="5.15221" fill="currentColor"/>
<rect x="474.09" y="53.0461" width="5.15221" height="5.15221" fill="currentColor"/>
<rect x="397.205" y="53.0461" width="5.15221" height="5.15221" fill="currentColor"/>
<rect x="550.974" y="53.0461" width="5.15221" height="5.15221" fill="currentColor"/>
<rect x="371.577" y="53.0461" width="5.15221" height="5.15221" fill="currentColor"/>
<rect x="525.346" y="53.0461" width="5.15221" height="5.15221" fill="currentColor"/>
<rect x="448.461" y="53.0461" width="5.15221" height="5.15221" fill="currentColor"/>
<rect x="602.23" y="53.0461" width="5.15221" height="5.15221" fill="currentColor"/>
<rect x="345.948" y="53.0461" width="5.15221" height="5.15221" fill="currentColor"/>
<rect x="499.718" y="53.0461" width="5.15221" height="5.15221" fill="currentColor"/>
<rect x="422.833" y="53.0461" width="5.15221" height="5.15221" fill="currentColor"/>
<rect x="576.603" y="53.0461" width="5.15221" height="5.15221" fill="currentColor"/>
<rect x="320.32" y="92.3254" width="5.15221" height="5.15221" fill="currentColor"/>
<rect x="474.09" y="92.3254" width="5.15221" height="5.15221" fill="currentColor"/>
<rect x="397.205" y="92.3254" width="5.15221" height="5.15221" fill="currentColor"/>
<rect x="550.974" y="92.3254" width="5.15221" height="5.15221" fill="currentColor"/>
<rect x="371.577" y="92.3254" width="5.15221" height="5.15221" fill="currentColor"/>
<rect x="525.346" y="92.3254" width="5.15221" height="5.15221" fill="currentColor"/>
<rect x="448.461" y="92.3254" width="5.15221" height="5.15221" fill="currentColor"/>
<rect x="602.23" y="92.3252" width="5.15221" height="5.15221" fill="currentColor"/>
<rect x="345.948" y="92.3254" width="5.15221" height="5.15221" fill="currentColor"/>
<rect x="499.718" y="92.3254" width="5.15221" height="5.15221" fill="currentColor"/>
<rect x="422.833" y="92.3254" width="5.15221" height="5.15221" fill="currentColor"/>
<rect x="576.603" y="92.3252" width="5.15221" height="5.15221" fill="currentColor"/>
</g>
<g opacity="0.44">
<rect x="626.872" y="13.7673" width="5.15221" height="5.15221" fill="currentColor"/>
<rect x="780.642" y="13.7673" width="5.15221" height="5.15221" fill="currentColor"/>
<rect x="703.757" y="13.7673" width="5.15221" height="5.15221" fill="currentColor"/>
<rect x="678.129" y="13.7673" width="5.15221" height="5.15221" fill="currentColor"/>
<rect x="755.014" y="13.7673" width="5.15221" height="5.15221" fill="currentColor"/>
<rect x="652.5" y="13.7673" width="5.15221" height="5.15221" fill="currentColor"/>
<rect x="729.385" y="13.7673" width="5.15221" height="5.15221" fill="currentColor"/>
<rect x="626.872" y="53.0461" width="5.15221" height="5.15221" fill="currentColor"/>
<rect x="780.642" y="53.0461" width="5.15221" height="5.15221" fill="currentColor"/>
<rect x="703.757" y="53.0461" width="5.15221" height="5.15221" fill="currentColor"/>
<rect x="678.129" y="53.0461" width="5.15221" height="5.15221" fill="currentColor"/>
<rect x="755.014" y="53.0461" width="5.15221" height="5.15221" fill="currentColor"/>
<rect x="652.5" y="53.0461" width="5.15221" height="5.15221" fill="currentColor"/>
<rect x="729.385" y="53.0461" width="5.15221" height="5.15221" fill="currentColor"/>
<rect x="626.872" y="92.3254" width="5.15221" height="5.15221" fill="currentColor"/>
<rect x="780.642" y="92.3254" width="5.15221" height="5.15221" fill="currentColor"/>
<rect x="703.757" y="92.3254" width="5.15221" height="5.15221" fill="currentColor"/>
<rect x="678.129" y="92.3254" width="5.15221" height="5.15221" fill="currentColor"/>
<rect x="755.014" y="92.3254" width="5.15221" height="5.15221" fill="currentColor"/>
<rect x="652.5" y="92.3254" width="5.15221" height="5.15221" fill="currentColor"/>
<rect x="729.385" y="92.3254" width="5.15221" height="5.15221" fill="currentColor"/>
</g>
</g>
</svg>
