<svg width="313" height="134" viewBox="0 0 313 134" xmlns="http://www.w3.org/2000/svg">
<rect x="312.766" y="134.001" width="5.61352" height="5.61352" transform="rotate(-180 312.766 134.001)" fill="currentColor"/>
<rect x="145.229" y="134.001" width="5.61352" height="5.61352" transform="rotate(-180 145.229 134.001)" fill="currentColor"/>
<rect x="228.996" y="134.001" width="5.61352" height="5.61352" transform="rotate(-180 228.996 134.001)" fill="currentColor"/>
<rect x="61.459" y="134.001" width="5.61352" height="5.61352" transform="rotate(-180 61.459 134.001)" fill="currentColor"/>
<rect x="256.92" y="134.001" width="5.61352" height="5.61352" transform="rotate(-180 256.92 134.001)" fill="currentColor"/>
<rect x="89.3828" y="134.001" width="5.61352" height="5.61352" transform="rotate(-180 89.3828 134.001)" fill="currentColor"/>
<rect x="173.15" y="134.001" width="5.61352" height="5.61352" transform="rotate(-180 173.15 134.001)" fill="currentColor"/>
<rect x="5.61426" y="134.001" width="5.61352" height="5.61352" transform="rotate(-180 5.61426 134.001)" fill="currentColor"/>
<rect x="284.842" y="134.001" width="5.61352" height="5.61352" transform="rotate(-180 284.842 134.001)" fill="currentColor"/>
<rect x="117.305" y="134.001" width="5.61352" height="5.61352" transform="rotate(-180 117.305 134.001)" fill="currentColor"/>
<rect x="201.074" y="134.001" width="5.61352" height="5.61352" transform="rotate(-180 201.074 134.001)" fill="currentColor"/>
<rect x="33.5371" y="134.001" width="5.61352" height="5.61352" transform="rotate(-180 33.5371 134.001)" fill="currentColor"/>
<rect x="312.766" y="91.2051" width="5.61352" height="5.61352" transform="rotate(-180 312.766 91.2051)" fill="currentColor"/>
<rect x="145.229" y="91.2051" width="5.61352" height="5.61352" transform="rotate(-180 145.229 91.2051)" fill="currentColor"/>
<rect x="228.996" y="91.2051" width="5.61352" height="5.61352" transform="rotate(-180 228.996 91.2051)" fill="currentColor"/>
<rect x="61.459" y="91.2051" width="5.61352" height="5.61352" transform="rotate(-180 61.459 91.2051)" fill="currentColor"/>
<rect x="256.92" y="91.2051" width="5.61352" height="5.61352" transform="rotate(-180 256.92 91.2051)" fill="currentColor"/>
<rect x="89.3828" y="91.2051" width="5.61352" height="5.61352" transform="rotate(-180 89.3828 91.2051)" fill="currentColor"/>
<rect x="173.15" y="91.2051" width="5.61352" height="5.61352" transform="rotate(-180 173.15 91.2051)" fill="currentColor"/>
<rect x="5.61426" y="91.2051" width="5.61352" height="5.61352" transform="rotate(-180 5.61426 91.2051)" fill="currentColor"/>
<rect x="284.842" y="91.2051" width="5.61352" height="5.61352" transform="rotate(-180 284.842 91.2051)" fill="currentColor"/>
<rect x="117.305" y="91.2051" width="5.61352" height="5.61352" transform="rotate(-180 117.305 91.2051)" fill="currentColor"/>
<rect x="201.074" y="91.2051" width="5.61352" height="5.61352" transform="rotate(-180 201.074 91.2051)" fill="currentColor"/>
<rect x="33.5371" y="91.2051" width="5.61352" height="5.61352" transform="rotate(-180 33.5371 91.2051)" fill="currentColor"/>
<rect x="312.766" y="48.4093" width="5.61352" height="5.61352" transform="rotate(-180 312.766 48.4093)" fill="currentColor"/>
<rect x="145.229" y="48.4093" width="5.61352" height="5.61352" transform="rotate(-180 145.229 48.4093)" fill="currentColor"/>
<rect x="228.996" y="48.4093" width="5.61352" height="5.61352" transform="rotate(-180 228.996 48.4093)" fill="currentColor"/>
<rect x="61.459" y="48.4093" width="5.61352" height="5.61352" transform="rotate(-180 61.459 48.4093)" fill="currentColor"/>
<rect x="256.92" y="48.4093" width="5.61352" height="5.61352" transform="rotate(-180 256.92 48.4093)" fill="currentColor"/>
<rect x="89.3828" y="48.4093" width="5.61352" height="5.61352" transform="rotate(-180 89.3828 48.4093)" fill="currentColor"/>
<rect x="173.15" y="48.4093" width="5.61352" height="5.61352" transform="rotate(-180 173.15 48.4093)" fill="currentColor"/>
<rect x="5.61426" y="48.4093" width="5.61352" height="5.61352" transform="rotate(-180 5.61426 48.4093)" fill="currentColor"/>
<rect x="284.842" y="48.4093" width="5.61352" height="5.61352" transform="rotate(-180 284.842 48.4093)" fill="currentColor"/>
<rect x="117.305" y="48.4093" width="5.61352" height="5.61352" transform="rotate(-180 117.305 48.4093)" fill="currentColor"/>
<rect x="201.074" y="48.4093" width="5.61352" height="5.61352" transform="rotate(-180 201.074 48.4093)" fill="currentColor"/>
<rect x="33.5371" y="48.4093" width="5.61352" height="5.61352" transform="rotate(-180 33.5371 48.4093)" fill="currentColor"/>
<rect x="312.766" y="5.61353" width="5.61352" height="5.61352" transform="rotate(-180 312.766 5.61353)" fill="currentColor"/>
<rect x="145.229" y="5.61353" width="5.61352" height="5.61352" transform="rotate(-180 145.229 5.61353)" fill="currentColor"/>
<rect x="228.996" y="5.61353" width="5.61352" height="5.61352" transform="rotate(-180 228.996 5.61353)" fill="currentColor"/>
<rect x="61.459" y="5.61353" width="5.61352" height="5.61352" transform="rotate(-180 61.459 5.61353)" fill="currentColor"/>
<rect x="256.92" y="5.61353" width="5.61352" height="5.61352" transform="rotate(-180 256.92 5.61353)" fill="currentColor"/>
<rect x="89.3828" y="5.61353" width="5.61352" height="5.61352" transform="rotate(-180 89.3828 5.61353)" fill="currentColor"/>
<rect x="173.15" y="5.61353" width="5.61352" height="5.61352" transform="rotate(-180 173.15 5.61353)" fill="currentColor"/>
<rect x="5.61426" y="5.61353" width="5.61352" height="5.61352" transform="rotate(-180 5.61426 5.61353)" fill="currentColor"/>
<rect x="284.842" y="5.61353" width="5.61352" height="5.61352" transform="rotate(-180 284.842 5.61353)" fill="currentColor"/>
<rect x="117.305" y="5.61353" width="5.61352" height="5.61352" transform="rotate(-180 117.305 5.61353)" fill="currentColor"/>
<rect x="201.074" y="5.61353" width="5.61352" height="5.61352" transform="rotate(-180 201.074 5.61353)" fill="currentColor"/>
<rect x="33.5371" y="5.61353" width="5.61352" height="5.61352" transform="rotate(-180 33.5371 5.61353)" fill="currentColor"/>
</svg>
