<svg width="193" height="37" viewBox="0 0 193 37" fill="none" xmlns="http://www.w3.org/2000/svg">
<path d="M15.5728 34.9854C6.34609 34.9854 0 27.271 0 18.4149C0 7.81681 9.22668 0 19.4331 0C21.8604 0 27.6654 0.307403 27.6654 3.77666C27.5777 4.68423 27.1683 5.53325 26.5249 6.16269C25.8815 6.80678 25.0188 7.18737 24.1122 7.26056C21.4656 7.26056 18.7458 2.34212 14.9586 2.34212C8.91961 2.34212 6.03902 9.3831 6.03902 14.5211C6.03902 24.2848 12.6922 30.4914 20.1642 30.4914C23.0155 30.4329 25.7645 29.3936 27.9433 27.5491L28.8498 28.6763C27.2121 30.6085 25.1796 32.1748 22.8839 33.2581C20.5882 34.3413 18.0878 34.9268 15.5581 34.9561" fill="currentColor"/>
<path d="M58.1091 4.0987V3.33752L67.1018 0L67.9353 0.292765L67.3358 5.82601C71.6494 2.66416 75.8021 0 80.6275 0C89.6933 0 90.1466 7.49477 90.1466 11.9594V25.4412C90.1466 31.6478 90.4537 32.2627 96.0394 33.0824V34.2242H78.4195V33.0824C84.0052 32.248 84.2392 31.3404 84.3123 25.4412V16.7461C84.3123 11.4471 84.5316 3.95232 75.3196 3.95232C73.8866 3.93768 72.4536 4.21581 71.123 4.77206C69.7923 5.32831 68.5933 6.16269 67.6136 7.20201V25.4559C67.6136 31.6625 67.9207 32.2773 73.5064 33.097V34.2388H55.9011V33.097C61.4868 32.2627 61.7208 31.3551 61.7939 25.4559V10.9933C61.7939 7.81681 61.867 6.83605 58.0945 4.0987" fill="currentColor"/>
<path d="M115.165 9.10505L100.645 9.71986C101.479 5.94319 104.052 1.68347 108.366 1.68347C112.358 1.68347 114.493 5.62115 115.165 9.10505ZM100.134 14.9311L100.441 11.1544H122.36C122.389 9.64667 122.096 8.13893 121.511 6.73366C120.927 5.34303 120.064 4.0695 118.967 3.03019C117.871 1.99087 116.569 1.17113 115.151 0.658795C113.732 0.146457 112.212 -0.0731163 110.706 0.0147131C100.499 0.0147131 93.6998 8.41706 93.6998 18.1954C93.6121 20.3472 93.9484 22.499 94.6941 24.5191C95.4399 26.5392 96.595 28.3836 98.0719 29.9499C99.5487 31.5162 101.333 32.7751 103.307 33.6387C105.281 34.5024 107.401 34.9562 109.55 34.9854C112.431 34.8537 115.224 33.9754 117.651 32.4237C120.093 30.8867 122.082 28.7349 123.456 26.2025L122.33 25.3681C121.365 26.8466 120.035 28.0616 118.485 28.8959C116.92 29.7303 115.18 30.1548 113.411 30.1402C111.51 30.1255 109.624 29.701 107.898 28.9106C106.173 28.1201 104.623 26.9637 103.365 25.5291C102.108 24.0946 101.172 22.4112 100.616 20.5814C100.061 18.7516 99.8851 16.834 100.119 14.9311" fill="currentColor"/>
<path d="M135.944 34.9854L125.065 7.9486C123.705 4.69891 122.871 2.12259 118.792 1.88837V0.76123H134.745V1.90301C129.159 2.06403 130.139 4.47934 131.499 8.05107L138.751 26.5977L145.858 9.79302C143.518 3.73279 143.445 2.59101 138.985 1.91765V0.790507H155.157V1.91765C149.484 2.13722 150.244 4.42079 151.166 6.90929L158.579 26.5977C161.606 19.8495 166.899 8.19745 166.899 4.64036C166.899 2.13722 164.56 2.13722 162.659 1.91765V0.790507H175.424V1.91765C171.11 2.22505 169.984 5.25517 168.405 8.66587L156.605 35H155.552L146.56 11.9888L137.113 35H135.973L135.944 34.9854Z" fill="currentColor"/>
<path d="M189.374 9.55874C188.321 6.07484 186.669 1.82975 182.355 1.82975C181.668 1.81512 180.98 1.94686 180.352 2.21035C179.723 2.47384 179.153 2.86907 178.67 3.36677C178.202 3.86447 177.837 4.46464 177.617 5.10872C177.398 5.7528 177.31 6.4408 177.354 7.12879C177.354 14.931 193 14.6968 193 24.4605C193 31.2087 186.581 34.9853 180.454 34.9853C177.164 35.0439 173.947 34.0631 171.242 32.1894L170.642 23.7871L172.383 23.4797C173.45 28.1054 176.009 33.0238 181.375 33.0238C182.165 33.0385 182.94 32.9067 183.656 32.6139C184.387 32.3212 185.045 31.882 185.586 31.3111C186.127 30.7549 186.552 30.0815 186.829 29.3496C187.107 28.6177 187.224 27.8272 187.18 27.0514C187.18 18.4149 171.534 20.1568 171.534 9.32453C171.534 3.42532 177.062 -2.35669e-05 182.428 -2.35669e-05C185.411 -0.0293 188.335 0.848994 190.821 2.50311L191.041 9.2367L189.388 9.52946L189.374 9.55874Z" fill="currentColor"/>
<path fill-rule="evenodd" clip-rule="evenodd" d="M40.9425 16.102C43.3698 16.102 45.3292 14.1405 45.3292 11.7105C45.3292 9.28057 43.3698 7.31905 40.9425 7.31905C38.5152 7.31905 36.5558 9.28057 36.5558 11.7105C36.5558 14.1405 38.5152 16.102 40.9425 16.102ZM43.1358 27.8126C49.1895 27.8126 54.1026 22.8941 54.1026 16.8339C54.1026 10.7737 49.1895 5.85522 43.1358 5.85522C37.0822 5.85522 32.1691 10.7737 32.1691 16.8339C32.1691 22.8941 37.0822 27.8126 43.1358 27.8126Z" fill="currentColor"/>
</svg>
