<svg width="108" height="50" viewBox="0 0 108 50" xmlns="http://www.w3.org/2000/svg">
<path d="M37.5801 21.033H70.397V14.0401H37.5801V21.033ZM37.5801 7.90124H70.397V0.919434H37.5801V7.90124Z" fill="currentColor"/>
<path d="M11.6447 48.9223C10.3275 49.4019 8.93463 49.6363 7.53415 49.614C2.51136 49.614 0 47.1664 0 42.2713C0 37.6429 2.51136 35.3275 7.53415 35.325C8.93578 35.3087 10.3287 35.5494 11.6447 36.0353V38.3981C10.4075 37.8684 9.07522 37.6011 7.73095 37.613C4.37169 37.613 2.69212 39.172 2.69212 42.29C2.69212 45.6722 4.37169 47.3646 7.73095 47.3671C9.07548 47.3777 10.4078 47.1092 11.6447 46.5782V48.9223Z" fill="currentColor"/>
<path d="M26.4282 48.9222V46.5593C27.9623 47.1055 29.5816 47.3726 31.2096 47.3482C33.3669 47.3482 34.4457 46.6254 34.4457 45.1797C34.4457 44.1304 33.7825 43.6045 32.4562 43.602H30.2541C27.3775 43.602 25.938 42.2884 25.9355 39.6614C25.9355 36.77 27.9847 35.3245 32.083 35.3245C33.6031 35.3158 35.115 35.5493 36.562 36.0161V38.379C35.128 37.8506 33.6109 37.5847 32.083 37.5938C29.7203 37.5938 28.5445 38.2818 28.5445 39.6614C28.5445 40.7132 29.1144 41.2391 30.2541 41.2391H32.4562C35.5194 41.2391 37.0509 42.5526 37.0509 45.1797C37.0509 48.1383 35.1039 49.6163 31.2096 49.6139C29.5893 49.637 27.9757 49.4036 26.4282 48.9222Z" fill="currentColor"/>
<path d="M22.6099 42.3855C23.712 41.8311 24.2877 40.8422 24.3478 39.4262C24.3478 39.3438 24.3478 39.2614 24.3478 39.1752C24.3478 36.6105 22.6876 35.3269 19.3671 35.3244C19.2435 35.3244 19.1234 35.3244 19.0139 35.3244H18.9714C18.8302 35.3244 18.6889 35.3244 18.5405 35.3244C17.1019 35.3164 15.6712 35.5503 14.3016 36.0174V38.3849C14.6834 38.2374 15.0726 38.1124 15.4673 38.0102C16.4701 37.7366 17.5016 37.5994 18.537 37.602C18.6889 37.602 18.8231 37.602 18.9644 37.602C20.8613 37.6881 21.8362 38.3511 21.8786 39.5835C21.8362 40.6811 21.2357 41.2392 20.0701 41.2392H16.8662V43.5093H20.1054C21.297 43.5093 21.8928 44.0999 21.8928 45.2812C21.8928 46.5698 20.9108 47.2478 18.9714 47.3377H18.9397C18.8019 47.3377 18.6748 47.3377 18.5264 47.3377C17.491 47.3402 16.4595 47.203 15.4567 46.9294C15.062 46.8272 14.6728 46.7022 14.291 46.5548V48.9222C15.6606 49.3893 17.0913 49.6233 18.5299 49.6152C18.6783 49.6152 18.8196 49.6152 18.9608 49.6152H19.0033C19.1269 49.6152 19.247 49.6152 19.3565 49.6152C22.677 49.6152 24.3372 48.2654 24.3372 45.5658C24.3372 45.5134 24.3372 45.4685 24.3372 45.416C24.316 43.9288 23.7367 42.9062 22.6099 42.3855Z" fill="currentColor"/>
<path d="M38.1104 44.3243C38.1104 40.7943 39.7871 39.0293 43.1406 39.0293C46.4941 39.0293 48.1696 40.7943 48.1671 44.3243C48.1671 47.8516 46.4928 49.6154 43.1442 49.6154C39.7957 49.6154 38.1176 47.8516 38.1104 44.3243ZM43.1442 47.5803C44.788 47.5803 45.6098 46.481 45.6098 44.2824C45.6098 42.137 44.788 41.0643 43.1442 41.0643C41.5005 41.0643 40.6774 42.1395 40.675 44.29C40.675 46.4835 41.4981 47.5803 43.1442 47.5803Z" fill="currentColor"/>
<path d="M52.4014 35.3242V49.6154H49.7549V35.3242H52.4014Z" fill="currentColor"/>
<path d="M63.5167 39.0293V49.6154H61.2413V48.2649C60.1962 49.1287 58.9115 49.6034 57.5858 49.6154C55.5414 49.6154 54.5186 48.3401 54.5186 45.7895V39.0293H57.0472V45.7053C57.0472 46.8531 57.5276 47.4576 58.4923 47.4576C59.4117 47.4177 60.2916 47.0527 60.9918 46.4208V39.0293H63.5167Z" fill="currentColor"/>
<path d="M65.6338 37.4414H67.8751V39.1378H70.3975V41.2318H68.163V46.0522C68.163 47.0317 68.5669 47.5214 69.3741 47.5214H70.3975V49.6154H68.1562C66.4744 49.6154 65.6338 48.6738 65.6338 46.7906V37.4414Z" fill="currentColor"/>
<path d="M74.6319 35.3242V37.4222H71.9854V35.3242H74.6319ZM74.6319 39.118V49.6154H71.9854V39.1218L74.6319 39.118Z" fill="currentColor"/>
<path d="M76.749 44.3243C76.749 40.7943 78.4232 39.0293 81.7715 39.0293C85.1204 39.0293 86.7983 40.7943 86.8058 44.3243C86.8058 47.8516 85.1279 49.6154 81.7715 49.6154C78.4156 49.6154 76.7415 47.8516 76.749 44.3243ZM81.7715 47.5803C83.4142 47.5803 84.2355 46.481 84.2355 44.2824C84.2355 42.137 83.4142 41.0643 81.7715 41.0643C80.1294 41.0643 79.308 42.1395 79.308 44.29C79.308 46.4835 80.1294 47.5803 81.7715 47.5803Z" fill="currentColor"/>
<path d="M88.9229 49.6154V39.0293H90.8544L91.1652 40.5826C91.5753 40.0979 92.0755 39.7096 92.6333 39.4423C93.1905 39.175 93.7943 39.0343 94.4055 39.0293C96.7514 39.0293 97.9235 40.3339 97.921 42.9431V49.6154H95.4175V42.9431C95.4175 41.7724 94.8738 41.187 93.787 41.187C92.9049 41.2168 92.062 41.5848 91.4122 42.2239V49.6154H88.9229Z" fill="currentColor"/>
<path d="M99.9681 49.0245V46.8438C101.195 47.3294 102.499 47.5651 103.811 47.5382C104.898 47.5382 105.44 47.1754 105.438 46.4497C105.436 45.7241 105.075 45.3788 104.356 45.4138H102.551C100.523 45.4138 99.5098 44.3754 99.5098 42.2986C99.5098 40.1217 100.989 39.032 103.948 39.0294C105.155 39.023 106.355 39.2247 107.499 39.6262V41.8031C106.35 41.334 105.124 41.0983 103.89 41.1088C102.526 41.1088 101.845 41.4716 101.845 42.1972C101.845 42.9229 102.241 43.2694 103.035 43.2369H104.652C106.87 43.2369 107.979 44.2753 107.979 46.3521C107.979 48.5291 106.565 49.6162 103.739 49.6138C102.459 49.6356 101.185 49.4364 99.9681 49.0245Z" fill="currentColor"/>
</svg>
