<svg width="64" height="50" viewBox="0 0 64 50" xmlns="http://www.w3.org/2000/svg">
<path d="M31.9786 10.4779C33.4657 10.4779 34.6018 10.153 35.3868 9.50314C36.1718 8.88167 36.5774 7.9353 36.5774 6.66837C36.5774 5.45161 36.1718 4.5314 35.3868 3.90775C34.6018 3.2841 33.4657 2.98972 31.9786 2.98972H27.4866V19.0628H24.292V0.113525H31.9786C34.3772 0.113525 36.2809 0.68266 37.6067 1.7904C38.9325 2.89814 39.6085 4.52486 39.6085 6.58769C39.6085 8.1032 39.2835 9.37448 38.6076 10.4299C37.9316 11.4853 37.1618 11.8974 36.3986 12.2965L39.9334 19.0563H36.307L31.9786 10.4779Z" fill="currentColor"/>
<path d="M20.6022 6.29097C20.6198 7.13544 20.4627 7.97443 20.1408 8.75532C19.8188 9.5362 19.3389 10.2421 18.7313 10.8288C17.484 12.0761 16.036 12.3552 14.2829 12.3552L9.04944 12.3923V19.0954H5.85488V9.5008H14.2196C14.6356 9.50507 15.048 9.42429 15.4316 9.26343C15.8152 9.10256 16.1619 8.865 16.4504 8.56532C16.7569 8.2752 17.0004 7.92512 17.1658 7.53685C17.3313 7.14859 17.4151 6.73044 17.412 6.30841C17.3991 5.46598 17.0585 4.66171 16.4625 4.06616C15.8666 3.4706 15.0621 3.13059 14.2196 3.11821H2.86747L0 0.1875H14.2109C15.9554 0.1875 17.4818 0.525492 18.7313 1.77279C19.3303 2.36183 19.8047 3.06542 20.1261 3.84164C20.4476 4.61787 20.6095 5.45085 20.6022 6.29097Z" fill="currentColor"/>
<path d="M29.0649 30.092L22.6408 49.0414H19.3394L14.7602 34.1588L10.1112 49.0414H6.84029L0.451172 30.092H3.88778L8.56732 45.5502L13.2512 30.092H16.3891L21.0992 45.5437L25.7525 30.092H29.0649Z" fill="currentColor"/>
<path d="M56.2086 42.7395V49.0414H53.0511V42.8441L45.9795 30.092H49.2002L54.6124 39.3203L59.9156 30.092H63.1625L56.2086 42.7395Z" fill="currentColor"/>
<path d="M62.9713 23.2646H0.296875V25.7374H62.9713V23.2646Z" fill="currentColor"/>
<path d="M37.7988 33.509L31.2243 49.0414H27.8945L36.2614 30.092H39.5323L47.8186 49.0348H44.4038L37.7988 33.509Z" fill="currentColor"/>
<path d="M34.4072 49.0284L37.7697 40.0662L41.1496 49.0371L34.4072 49.0284Z" fill="currentColor"/>
<path d="M56.4136 3.68531C57.4246 4.29145 58.2703 5.13786 58.8755 6.14937C59.2109 6.72777 59.4551 7.35442 59.5995 8.00724H62.9227C62.7445 6.82314 62.3347 5.68575 61.7168 4.66003C60.8496 3.18752 59.5954 1.98084 58.0905 1.17109C57.0062 0.579905 55.8244 0.188446 54.6016 0.0153809V2.97444C55.2372 3.12121 55.8478 3.36074 56.4136 3.68531Z" fill="currentColor"/>
<path d="M49.6473 15.4822C48.6169 14.8832 47.7608 14.0256 47.1636 12.9941C46.5393 11.9568 46.2113 10.7682 46.215 9.55752C46.1987 8.35795 46.5174 7.17762 47.1352 6.14926C47.7438 5.13069 48.6005 4.28295 49.6255 3.68519C50.1998 3.36163 50.8173 3.12154 51.4594 2.97214V0C50.2188 0.169031 49.0195 0.562894 47.9202 1.16225C46.7976 1.7882 45.8112 2.63204 45.0191 3.64429C44.2269 4.65653 43.6448 5.81678 43.307 7.05698C42.9693 8.29718 42.8826 9.59235 43.052 10.8665C43.2215 12.1407 43.6437 13.3681 44.2939 14.4769C45.169 15.9505 46.4206 17.1646 47.9202 17.9942C49.0129 18.6111 50.2121 19.0165 51.455 19.1892V16.2214C50.8177 16.0704 50.2078 15.821 49.6473 15.4822Z" fill="currentColor"/>
<path d="M58.8763 12.994C58.2797 14.0186 57.4325 14.8747 56.4144 15.4821C55.8529 15.8201 55.2423 16.0687 54.6045 16.2191V19.1891C55.8307 19.015 57.0138 18.6142 58.0934 18.0072C59.5939 17.1788 60.8459 15.9645 61.7198 14.4899C62.333 13.4695 62.7412 12.3392 62.9213 11.1624H59.5937C59.4451 11.8046 59.2034 12.4217 58.8763 12.994Z" fill="currentColor"/>
</svg>
