<svg width="66" height="13" viewBox="0 0 66 13" fill="none" xmlns="http://www.w3.org/2000/svg"><path d="M62.967 3.39c.578 0 1.074.12 1.488.358.414.238.733.576.955 1.014.223.437.334.96.334 1.57v.738h-4.33c.016.63.184 1.114.504 1.453.324.34.777.51 1.36.51.413 0 .785-.039 1.113-.117a6.178 6.178 0 001.025-.357v1.119a4.481 4.481 0 01-.99.334c-.336.07-.739.105-1.207.105-.637 0-1.197-.123-1.682-.369a2.7 2.7 0 01-1.13-1.113c-.27-.492-.405-1.104-.405-1.834 0-.727.123-1.344.37-1.852a2.661 2.661 0 011.036-1.16c.445-.266.965-.398 1.559-.398zm0 1.038c-.434 0-.785.14-1.055.422-.265.28-.422.693-.469 1.236h2.954a2.27 2.27 0 00-.165-.861 1.25 1.25 0 00-.468-.586c-.207-.141-.473-.211-.797-.211zM56.053 3.39c.578 0 1.074.12 1.488.358.414.238.732.576.955 1.014.223.437.334.96.334 1.57v.738H54.5c.016.63.184 1.114.504 1.453.324.34.777.51 1.36.51.413 0 .784-.039 1.113-.117a6.185 6.185 0 001.025-.357v1.119a4.482 4.482 0 01-.99.334c-.336.07-.739.105-1.207.105-.637 0-1.198-.123-1.682-.369a2.7 2.7 0 01-1.13-1.113c-.27-.492-.405-1.104-.405-1.834 0-.727.123-1.344.369-1.852a2.661 2.661 0 011.037-1.16c.446-.266.965-.398 1.559-.398zm0 1.038c-.434 0-.785.14-1.055.422-.266.28-.422.693-.469 1.236h2.953a2.273 2.273 0 00-.164-.861 1.25 1.25 0 00-.468-.586c-.207-.141-.473-.211-.797-.211zm-8.971-.914V6.12h3.035V3.514H51.5V10h-1.383V7.2h-3.035V10h-1.383V3.514h1.383zM38.03 6.11c0-.942.103-1.743.31-2.403.207-.66.533-1.19.978-1.588.446-.398 1.024-.67 1.735-.814.46-.106.93-.196 1.406-.27.476-.074.953-.146 1.43-.217l.187 1.213c-.223.028-.46.06-.715.1a30.163 30.163 0 00-2.12.351 2.491 2.491 0 00-.932.387c-.25.176-.446.434-.586.774-.141.34-.225.793-.252 1.359h.076c.105-.16.252-.32.44-.48a2.4 2.4 0 01.679-.399c.27-.11.576-.164.92-.164.539 0 .996.113 1.371.34.379.226.666.555.861.984.2.43.3.947.3 1.553 0 .723-.13 1.328-.388 1.816-.253.485-.609.85-1.066 1.096-.457.246-.99.37-1.6.37-.468 0-.89-.089-1.265-.264a2.632 2.632 0 01-.955-.774 3.741 3.741 0 01-.604-1.26c-.14-.5-.21-1.07-.21-1.71zm3.128 2.876c.313 0 .582-.066.809-.199.23-.133.408-.348.533-.644.129-.297.193-.69.193-1.178 0-.602-.109-1.074-.328-1.418-.215-.348-.57-.522-1.066-.522-.305 0-.584.069-.838.205a2.57 2.57 0 00-.645.48c-.175.18-.3.339-.375.476 0 .355.026.699.077 1.03.054.333.144.634.27.903.128.266.304.477.527.633.222.156.503.234.843.234zm-4.342-2.244c0 .54-.07 1.018-.21 1.436a2.872 2.872 0 01-.616 1.06 2.71 2.71 0 01-.972.657 3.494 3.494 0 01-1.284.222c-.445 0-.853-.074-1.224-.222a2.793 2.793 0 01-.967-.657 3.008 3.008 0 01-.627-1.06 4.278 4.278 0 01-.223-1.436c0-.715.123-1.32.37-1.816.25-.5.605-.881 1.066-1.143.46-.262 1.01-.392 1.646-.392.598 0 1.125.13 1.582.392.458.262.815.643 1.073 1.143s.386 1.105.386 1.816zm-4.705 0c0 .473.057.877.17 1.213.117.336.297.594.54.774.242.175.554.263.937.263s.695-.088.937-.263c.242-.18.42-.438.533-.774.114-.336.17-.74.17-1.213 0-.472-.056-.873-.17-1.201-.113-.332-.29-.584-.533-.756-.242-.176-.556-.264-.943-.264-.57 0-.986.192-1.248.575-.262.383-.393.931-.393 1.646zM26.926 3.39c.77 0 1.387.282 1.851.844.47.563.703 1.399.703 2.508 0 .735-.109 1.354-.328 1.858-.215.5-.517.879-.908 1.136-.387.254-.838.381-1.353.381a2.56 2.56 0 01-.856-.129 2.135 2.135 0 01-.62-.334 2.38 2.38 0 01-.434-.457h-.083c.02.157.038.33.053.522.02.187.03.36.03.515v2.643h-1.383V3.514h1.125l.193.896h.064a2.69 2.69 0 01.44-.51c.176-.156.387-.279.633-.369.25-.094.54-.14.873-.14zm-.37 1.126c-.378 0-.683.076-.913.228-.227.149-.393.373-.498.674-.102.3-.157.678-.165 1.13v.194c0 .48.05.889.147 1.225.102.332.268.586.498.762.234.171.55.257.95.257.335 0 .613-.091.831-.275.223-.184.389-.445.498-.785.11-.34.164-.74.164-1.201 0-.7-.125-1.243-.375-1.63-.246-.386-.625-.58-1.136-.58zm-5.103-1.002v5.42h.938v3.351h-1.272V10h-4.476v2.285H15.37V8.934h.527a7.294 7.294 0 00.82-1.594 10.77 10.77 0 00.516-1.852c.125-.652.203-1.31.235-1.974h3.984zm-1.365 1.054h-1.436a12.787 12.787 0 01-.24 1.577 10.69 10.69 0 01-.44 1.494 6.997 6.997 0 01-.632 1.295h2.748V4.568zm-5.514 2.174c0 .54-.07 1.018-.21 1.436a2.872 2.872 0 01-.616 1.06 2.71 2.71 0 01-.973.657 3.494 3.494 0 01-1.283.222c-.445 0-.853-.074-1.224-.222a2.793 2.793 0 01-.967-.657 3.008 3.008 0 01-.627-1.06 4.277 4.277 0 01-.223-1.436c0-.715.123-1.32.37-1.816.25-.5.605-.881 1.066-1.143.46-.262 1.01-.392 1.646-.392.598 0 1.125.13 1.582.392.457.262.815.643 1.072 1.143.258.5.387 1.105.387 1.816zm-4.705 0c0 .473.057.877.17 1.213.117.336.297.594.54.774.241.175.554.263.937.263.382 0 .695-.088.937-.263.242-.18.42-.438.533-.774.114-.336.17-.74.17-1.213 0-.472-.056-.873-.17-1.201-.113-.332-.29-.584-.533-.756-.242-.176-.556-.264-.943-.264-.57 0-.987.192-1.248.575-.262.383-.393.931-.393 1.646zM.125 10V1.434h6.58V10H5.311V2.629H1.53V10H.125z" fill="#fff"/></svg>