<svg xmlns="http://www.w3.org/2000/svg" xmlns:xlink="http://www.w3.org/1999/xlink"><symbol id="chevron-left" viewBox="0 0 16 31"><path d="M15.5 1L1 15.5 15.5 30" fill="transparent" stroke="currentColor"/></symbol><symbol id="chevron-right" viewBox="0 0 16 31"><path d="M.5 1L15 15.5.5 30" fill="transparent" stroke="currentColor"/></symbol><symbol id="dots-3-rows" viewBox="0 0 783 113"><mask id="mask0_552_1718" style="mask-type:alpha" maskUnits="userSpaceOnUse" x="0" y="0" width="927" height="113"><path fill="#D9D9D9" d="M0 0h927v112.892H0z"/></mask><g mask="url(#mask0_552_1718)" fill="currentColor"><path d="M12.85 13.767h5.152v5.152H12.85zm153.769 0h5.152v5.152h-5.152zm-76.885 0h5.152v5.152h-5.152zm153.769 0h5.152v5.152h-5.152zm-179.397 0h5.152v5.152h-5.152zm153.769 0h5.152v5.152h-5.152zm-76.885 0h5.152v5.152h-5.152zm153.77 0h5.152v5.152h-5.152zm-256.283 0h5.152v5.152h-5.152zm153.77 0h5.152v5.152h-5.152zm-76.885 0h5.152v5.152h-5.152zm153.77 0h5.152v5.152h-5.152zM12.85 53.046h5.152v5.152H12.85zm153.769 0h5.152v5.152h-5.152zm-76.885 0h5.152v5.152h-5.152zm153.769 0h5.152v5.152h-5.152zm-179.397 0h5.152v5.152h-5.152zm153.769 0h5.152v5.152h-5.152zm-76.885 0h5.152v5.152h-5.152zm153.77 0h5.152v5.152h-5.152zm-256.283 0h5.152v5.152h-5.152zm153.77 0h5.152v5.152h-5.152zm-76.885 0h5.152v5.152h-5.152zm153.77 0h5.152v5.152h-5.152zM12.85 92.325h5.152v5.152H12.85zm153.769 0h5.152v5.152h-5.152zm-76.885 0h5.152v5.152h-5.152zm153.769 0h5.152v5.152h-5.152zm-179.397 0h5.152v5.152h-5.152zm153.769 0h5.152v5.152h-5.152zm-76.885 0h5.152v5.152h-5.152zm153.77 0h5.152v5.152h-5.152zm-256.283 0h5.152v5.152h-5.152zm153.77 0h5.152v5.152h-5.152zm-76.885 0h5.152v5.152h-5.152zm153.77 0h5.152v5.152h-5.152zm51.188-78.558h5.152v5.152h-5.152zm153.77 0h5.152v5.152h-5.152zm-76.885 0h5.152v5.152h-5.152zm153.769 0h5.152v5.152h-5.152zm-179.397 0h5.152v5.152h-5.152zm153.769 0h5.152v5.152h-5.152zm-76.885 0h5.152v5.152h-5.152zm153.769 0h5.152v5.152h-5.152zm-256.282 0h5.152v5.152h-5.152zm153.77 0h5.152v5.152h-5.152zm-76.885 0h5.152v5.152h-5.152zm153.77 0h5.152v5.152h-5.152zM320.32 53.046h5.152v5.152h-5.152zm153.77 0h5.152v5.152h-5.152zm-76.885 0h5.152v5.152h-5.152zm153.769 0h5.152v5.152h-5.152zm-179.397 0h5.152v5.152h-5.152zm153.769 0h5.152v5.152h-5.152zm-76.885 0h5.152v5.152h-5.152zm153.769 0h5.152v5.152h-5.152zm-256.282 0h5.152v5.152h-5.152zm153.77 0h5.152v5.152h-5.152zm-76.885 0h5.152v5.152h-5.152zm153.77 0h5.152v5.152h-5.152zM320.32 92.325h5.152v5.152h-5.152zm153.77 0h5.152v5.152h-5.152zm-76.885 0h5.152v5.152h-5.152zm153.769 0h5.152v5.152h-5.152zm-179.397 0h5.152v5.152h-5.152zm153.769 0h5.152v5.152h-5.152zm-76.885 0h5.152v5.152h-5.152zm153.769 0h5.152v5.152h-5.152zm-256.282 0h5.152v5.152h-5.152zm153.77 0h5.152v5.152h-5.152zm-76.885 0h5.152v5.152h-5.152zm153.77 0h5.152v5.152h-5.152zm50.269-78.558h5.152v5.152h-5.152zm153.77 0h5.152v5.152h-5.152zm-76.885 0h5.152v5.152h-5.152zm-25.628 0h5.152v5.152h-5.152zm76.885 0h5.152v5.152h-5.152zm-102.514 0h5.152v5.152H652.5zm76.885 0h5.152v5.152h-5.152zM626.872 53.046h5.152v5.152h-5.152zm153.77 0h5.152v5.152h-5.152zm-76.885 0h5.152v5.152h-5.152zm-25.628 0h5.152v5.152h-5.152zm76.885 0h5.152v5.152h-5.152zm-102.514 0h5.152v5.152H652.5zm76.885 0h5.152v5.152h-5.152zM626.872 92.325h5.152v5.152h-5.152zm153.77 0h5.152v5.152h-5.152zm-76.885 0h5.152v5.152h-5.152zm-25.628 0h5.152v5.152h-5.152zm76.885 0h5.152v5.152h-5.152zm-102.514 0h5.152v5.152H652.5zm76.885 0h5.152v5.152h-5.152z" opacity=".44"/></g></symbol><symbol id="dots-horizontal" viewBox="0 0 313 134"><path fill="currentColor" d="M312.766 134.001h-5.614v-5.614h5.614zm-167.537 0h-5.614v-5.614h5.614zm83.767 0h-5.614v-5.614h5.614zm-167.537 0h-5.614v-5.614h5.614zm195.461 0h-5.614v-5.614h5.614zm-167.537 0h-5.614v-5.614h5.614zm83.767 0h-5.614v-5.614h5.614zm-167.535 0H0v-5.614h5.614zm279.227 0h-5.614v-5.614h5.614zm-167.537 0h-5.614v-5.614h5.614zm83.769 0h-5.614v-5.614h5.614zm-167.537 0h-5.614v-5.614h5.614zm279.229-42.796h-5.614v-5.614h5.614zm-167.537 0h-5.614v-5.614h5.614zm83.767 0h-5.614v-5.614h5.614zm-167.537 0h-5.614v-5.614h5.614zm195.461 0h-5.614v-5.614h5.614zm-167.537 0h-5.614v-5.614h5.614zm83.767 0h-5.614v-5.614h5.614zm-167.535 0H0v-5.614h5.614zm279.227 0h-5.614v-5.614h5.614zm-167.537 0h-5.614v-5.614h5.614zm83.769 0h-5.614v-5.614h5.614zm-167.537 0h-5.614v-5.614h5.614zM312.766 48.41h-5.614v-5.614h5.614zm-167.537 0h-5.614v-5.614h5.614zm83.767 0h-5.614v-5.614h5.614zm-167.537 0h-5.614v-5.614h5.614zm195.461 0h-5.614v-5.614h5.614zm-167.537 0h-5.614v-5.614h5.614zm83.767 0h-5.614v-5.614h5.614zm-167.535 0H0v-5.614h5.614zm279.227 0h-5.614v-5.614h5.614zm-167.537 0h-5.614v-5.614h5.614zm83.769 0h-5.614v-5.614h5.614zm-167.537 0h-5.614v-5.614h5.614zM312.766 5.613h-5.614V0h5.614zm-167.537 0h-5.614V0h5.614zm83.767 0h-5.614V0h5.614zm-167.537 0h-5.614V0h5.614zm195.461 0h-5.614V0h5.614zm-167.537 0h-5.614V0h5.614zm83.767 0h-5.614V0h5.614zm-167.535 0H0V0h5.614zm279.227 0h-5.614V0h5.614zm-167.537 0h-5.614V0h5.614zm83.769 0h-5.614V0h5.614zm-167.537 0h-5.614V0h5.614z"/></symbol><symbol id="dots-vertical" viewBox="0 0 134 314"><path fill="currentColor" d="M134.002.623v5.614h-5.614V.623zm0 167.537v5.614h-5.614v-5.614zm0-83.769v5.614h-5.614v-5.614zm0 167.537v5.614h-5.614v-5.614zm0-195.46v5.614h-5.614v-5.614zm0 167.538v5.614h-5.614v-5.614zm0-83.769v5.614h-5.614v-5.614zm0 167.537v5.614h-5.614v-5.614zm0-279.229v5.614h-5.614v-5.614zm0 167.538v5.614h-5.614v-5.614zm0-83.769v5.614h-5.614v-5.614zm0 167.537v5.614h-5.614v-5.614zM91.205.622v5.614H85.59V.622zm0 167.538v5.614h-5.614v-5.614zm0-83.769v5.614h-5.614v-5.614zm0 167.537v5.614h-5.614v-5.614zm0-195.46v5.614h-5.614v-5.614zm0 167.538v5.614h-5.614v-5.614zm0-83.769v5.614h-5.614v-5.614zm0 167.537v5.614h-5.614v-5.614zm.001-279.229v5.614h-5.614v-5.614zm-.001 167.538v5.614h-5.614v-5.614zm0-83.769v5.614h-5.614v-5.614zm0 167.536v5.615h-5.614v-5.614zM48.41.622v5.614h-5.614V.622zm0 167.538v5.614h-5.614v-5.614zm0-83.77v5.615h-5.614V84.39zm0 167.538v5.614h-5.614v-5.614zm0-195.46v5.614h-5.613v-5.614zm0 167.538v5.614h-5.614v-5.614zm0-83.769v5.614h-5.614v-5.614zm0 167.537v5.614h-5.614v-5.614zm0-279.229v5.614h-5.613v-5.614zm0 167.538v5.614h-5.614v-5.614zm0-83.769v5.614h-5.614v-5.614zm0 167.536v5.615h-5.614v-5.614zM5.613.622v5.614H-.001V.622zm0 167.538v5.614H0v-5.614zm0-83.77v5.615H0V84.39zm0 167.538v5.614H0v-5.614zm.001-195.46v5.614H0v-5.614zm-.001 167.538v5.614H0v-5.614zm0-83.769v5.614H0v-5.614zm0 167.537v5.614H0v-5.614zm.001-279.229v5.614H0v-5.614zm-.001 167.538v5.614H0v-5.614zm0-83.769v5.614H0v-5.614zm0 167.536v5.615H0v-5.614z"/></symbol><symbol id="logo-2" viewBox="0 0 64 50"><path d="M31.979 10.478c1.487 0 2.623-.325 3.408-.975.785-.621 1.19-1.568 1.19-2.835 0-1.216-.405-2.137-1.19-2.76-.785-.624-1.921-.918-3.408-.918h-4.492v16.073h-3.195V.113h7.687c2.398 0 4.302.57 5.628 1.677 1.325 1.108 2.002 2.735 2.002 4.798 0 1.515-.326 2.786-1.001 3.842-.676 1.055-1.446 1.467-2.21 1.867l3.535 6.76h-3.626l-4.328-8.58zM20.602 6.291a6.131 6.131 0 01-1.87 4.538c-1.248 1.247-2.696 1.526-4.45 1.526l-5.233.037v6.703H5.855V9.501h8.365a3.053 3.053 0 002.23-.936 3.076 3.076 0 00.962-2.257 3.24 3.24 0 00-3.192-3.19H2.867L0 .188h14.21c1.745 0 3.272.337 4.521 1.585a6.26 6.26 0 011.871 4.518zm8.463 23.801l-6.424 18.95h-3.302L14.76 34.158 10.111 49.04h-3.27L.45 30.092h3.437l4.68 15.458 4.683-15.458h3.138l4.71 15.452 4.654-15.452h3.312zM56.209 42.74v6.301H53.05v-6.197l-7.07-12.752h3.22l5.412 9.228 5.304-9.228h3.247L56.209 42.74zm6.762-19.475H.297v2.472H62.97v-2.472zM37.799 33.509l-6.575 15.532h-3.33l8.367-18.949h3.271l8.287 18.943h-3.415l-6.605-15.526z" fill="currentColor"/><path d="M34.407 49.028l3.363-8.962 3.38 8.971-6.743-.009zM56.414 3.685a7.158 7.158 0 012.462 2.464 6.51 6.51 0 01.724 1.858h3.323a9.116 9.116 0 00-1.206-3.347 9.35 9.35 0 00-3.627-3.489A10.305 10.305 0 0054.602.015v2.96a6.647 6.647 0 011.812.71zm-6.767 11.797a6.845 6.845 0 01-2.483-2.488 6.625 6.625 0 01-.949-3.436c-.016-1.2.302-2.38.92-3.409a7.022 7.022 0 012.49-2.464 6.94 6.94 0 011.834-.713V0c-1.24.169-2.44.563-3.539 1.162a9.653 9.653 0 00-3.626 13.315 9.651 9.651 0 003.626 3.517 9.985 9.985 0 003.535 1.195v-2.968a6.304 6.304 0 01-1.808-.739zm9.229-2.488a6.997 6.997 0 01-2.462 2.488 6.324 6.324 0 01-1.81.737v2.97a9.982 9.982 0 003.49-1.182 9.62 9.62 0 003.626-3.517 9.146 9.146 0 001.201-3.328h-3.327a6.764 6.764 0 01-.718 1.832z" fill="currentColor"/></symbol><symbol id="logo-cnews" viewBox="0 0 193 37"><path d="M15.573 34.985C6.346 34.985 0 27.271 0 18.415 0 7.817 9.227 0 19.433 0c2.427 0 8.232.307 8.232 3.777a3.869 3.869 0 01-1.14 2.386 3.844 3.844 0 01-2.413 1.098c-2.646 0-5.366-4.919-9.153-4.919-6.04 0-8.92 7.041-8.92 12.18 0 9.763 6.653 15.97 14.125 15.97a12.44 12.44 0 007.78-2.943l.906 1.127a17.763 17.763 0 01-5.966 4.582 17.664 17.664 0 01-7.326 1.698M58.11 4.099v-.761L67.101 0l.833.293-.6 5.533C71.65 2.664 75.803 0 80.629 0c9.065 0 9.519 7.495 9.519 11.96v13.48c0 6.207.307 6.822 5.892 7.641v1.142H78.42v-1.142c5.586-.834 5.82-1.742 5.893-7.64v-8.696c0-5.299.22-12.794-8.992-12.794a10.618 10.618 0 00-4.197.82c-1.33.556-2.53 1.39-3.51 2.43v18.254c0 6.207.308 6.821 5.893 7.641v1.142H55.901v-1.142c5.586-.834 5.82-1.742 5.893-7.641V10.993c0-3.176.073-4.157-3.7-6.894m57.071 5.006l-14.52.615c.834-3.777 3.407-8.037 7.721-8.037 3.992 0 6.127 3.938 6.799 7.422zm-15.031 5.826l.307-3.777h21.919a10.97 10.97 0 00-.849-4.42 10.94 10.94 0 00-2.544-3.704 11.011 11.011 0 00-3.816-2.37 11.202 11.202 0 00-4.445-.644C100.499.015 93.7 8.417 93.7 18.195a16.347 16.347 0 00.994 6.324 15.993 15.993 0 003.378 5.43 16.043 16.043 0 0011.478 5.036 16.42 16.42 0 008.101-2.561 16.804 16.804 0 005.805-6.221l-1.126-.835a10.594 10.594 0 01-3.845 3.528 10.583 10.583 0 01-5.074 1.244 13.523 13.523 0 01-5.513-1.23 13.55 13.55 0 01-4.533-3.38 13.42 13.42 0 01-2.749-4.949 13.685 13.685 0 01-.497-5.65" fill="currentColor"/><path d="M135.944 34.985L125.065 7.95c-1.36-3.25-2.194-5.826-6.273-6.06V.76h15.953v1.142c-5.586.161-4.606 2.576-3.246 6.148l7.252 18.547 7.107-16.805c-2.34-6.06-2.413-7.202-6.873-7.875V.79h16.172v1.127c-5.673.22-4.913 2.503-3.991 4.991l7.413 19.689c3.027-6.748 8.32-18.4 8.32-21.958 0-2.503-2.339-2.503-4.24-2.722V.79h12.765v1.127c-4.314.307-5.44 3.337-7.019 6.748L156.605 35h-1.053l-8.992-23.011L137.113 35h-1.14l-.029-.015z" fill="currentColor"/><path d="M189.374 9.559c-1.053-3.484-2.705-7.73-7.019-7.73a4.928 4.928 0 00-2.003.381 5.089 5.089 0 00-1.682 1.157 4.85 4.85 0 00-1.053 1.742 5.241 5.241 0 00-.263 2.02c0 7.802 15.646 7.568 15.646 17.332 0 6.748-6.419 10.524-12.546 10.524a15.68 15.68 0 01-9.212-2.796l-.6-8.402 1.741-.307c1.067 4.625 3.626 9.544 8.992 9.544a5.73 5.73 0 002.281-.41 5.428 5.428 0 001.93-1.303 5.729 5.729 0 001.243-1.961 5.605 5.605 0 00.351-2.299c0-8.636-15.646-6.894-15.646-17.726 0-5.9 5.528-9.325 10.894-9.325 2.983-.03 5.907.849 8.393 2.503l.22 6.734-1.653.292-.014.03z" fill="currentColor"/><path fill-rule="evenodd" clip-rule="evenodd" d="M40.943 16.102a4.383 4.383 0 004.386-4.392c0-2.43-1.96-4.391-4.386-4.391a4.383 4.383 0 00-4.387 4.391c0 2.43 1.96 4.392 4.387 4.392zm2.193 11.71c6.053 0 10.967-4.918 10.967-10.978S49.19 5.855 43.136 5.855s-10.967 4.919-10.967 10.979 4.913 10.979 10.967 10.979z" fill="currentColor"/></symbol><symbol id="logo" viewBox="0 0 108 50"><path d="M37.58 21.033h32.817V14.04H37.58v6.993zm0-13.132h32.817V.92H37.58v6.982zM11.645 48.922a11.48 11.48 0 01-4.11.692C2.51 49.614 0 47.166 0 42.271c0-4.628 2.511-6.944 7.534-6.946a11.481 11.481 0 014.11.71v2.363a9.724 9.724 0 00-3.913-.785c-3.36 0-5.039 1.559-5.039 4.677 0 3.382 1.68 5.075 5.039 5.077a9.726 9.726 0 003.914-.789v2.344zm14.783 0V46.56a13.64 13.64 0 004.782.79c2.157 0 3.236-.724 3.236-2.17 0-1.049-.663-1.575-1.99-1.577h-2.202c-2.877 0-4.316-1.314-4.319-3.94 0-2.892 2.05-4.337 6.148-4.337 1.52-.01 3.032.224 4.479.691v2.363a12.735 12.735 0 00-4.479-.785c-2.363 0-3.538.688-3.538 2.067 0 1.052.57 1.578 1.71 1.578h2.201c3.063 0 4.595 1.314 4.595 3.94 0 2.96-1.947 4.437-5.841 4.435-1.62.023-3.234-.21-4.782-.692zm-3.818-6.536c1.102-.555 1.678-1.544 1.738-2.96v-.25c0-2.566-1.66-3.85-4.98-3.852h-.827a12.901 12.901 0 00-4.24.693v2.368c.382-.148.772-.273 1.166-.375a11.547 11.547 0 013.07-.408h.427c1.897.086 2.872.75 2.915 1.982-.043 1.097-.643 1.655-1.809 1.655h-3.204v2.27h3.24c1.191 0 1.787.59 1.787 1.772 0 1.289-.982 1.967-2.922 2.057h-.445a11.551 11.551 0 01-3.07-.409 10.646 10.646 0 01-1.165-.374v2.367c1.37.467 2.8.701 4.239.693h.827c3.32 0 4.98-1.35 4.98-4.05v-.149c-.021-1.487-.6-2.51-1.727-3.03zm15.5 1.938c0-3.53 1.677-5.295 5.03-5.295 3.354 0 5.03 1.765 5.027 5.295 0 3.528-1.674 5.291-5.023 5.291-3.348 0-5.026-1.763-5.034-5.29zm5.034 3.256c1.644 0 2.466-1.099 2.466-3.298 0-2.145-.822-3.218-2.466-3.218-1.643 0-2.467 1.075-2.469 3.226 0 2.194.823 3.29 2.47 3.29zm9.257-12.256v14.291h-2.646v-14.29H52.4zm11.116 3.706v10.585H61.24v-1.35a5.816 5.816 0 01-3.655 1.35c-2.045 0-3.067-1.275-3.067-3.826v-6.76h2.528v6.676c0 1.148.48 1.753 1.445 1.753.92-.04 1.8-.405 2.5-1.037v-7.392h2.525zm2.117-1.589h2.241v1.697h2.522v2.094h-2.234v4.82c0 .98.404 1.47 1.211 1.47h1.023v2.093h-2.24c-1.683 0-2.523-.941-2.523-2.824v-9.35zm8.998-2.117v2.098h-2.647v-2.098h2.647zm0 3.794v10.497h-2.647V39.122l2.647-.004zm2.117 5.206c0-3.53 1.674-5.295 5.023-5.295 3.348 0 5.026 1.765 5.034 5.295 0 3.528-1.678 5.291-5.034 5.291s-5.03-1.763-5.023-5.29zm5.023 3.256c1.642 0 2.463-1.099 2.463-3.298 0-2.145-.82-3.218-2.463-3.218-1.643 0-2.464 1.075-2.464 3.226 0 2.194.821 3.29 2.463 3.29zm7.151 2.035V39.03h1.931l.311 1.554a4.44 4.44 0 011.468-1.14 4.173 4.173 0 011.773-.414c2.345 0 3.517 1.305 3.515 3.914v6.672h-2.504v-6.672c0-1.17-.543-1.756-1.63-1.756a3.558 3.558 0 00-2.375 1.037v7.391h-2.49zm11.045-.59v-2.181a9.883 9.883 0 003.843.694c1.087 0 1.629-.363 1.627-1.088-.002-.726-.363-1.071-1.082-1.036h-1.805c-2.028 0-3.041-1.039-3.041-3.115 0-2.177 1.479-3.267 4.438-3.27a10.55 10.55 0 013.551.597v2.177a9.336 9.336 0 00-3.609-.694c-1.364 0-2.045.363-2.045 1.088 0 .726.396 1.072 1.19 1.04h1.617c2.218 0 3.327 1.038 3.327 3.115 0 2.177-1.414 3.264-4.24 3.262a11.162 11.162 0 01-3.77-.59z" fill="currentColor"/></symbol><symbol id="play" viewBox="0 0 55 55"><rect x="1" y="1" width="53" height="53" rx="2" fill="transparent" stroke="currentColor" stroke-width="2"/><path d="M39.5 24.402c2 1.155 2 4.041 0 5.196L23 39.124c-2 1.155-4.5-.288-4.5-2.598V17.474c0-2.31 2.5-3.753 4.5-2.598l16.5 9.526z" fill="currentColor"/></symbol></svg>